<svg width="16" height="16" viewBox="0 0 16 16" fill="none" xmlns="http://www.w3.org/2000/svg">
<path fill-rule="evenodd" clip-rule="evenodd" d="M0.226667 1.34276C0.115003 1.22461 0.0430576 1.07993 0.0193579 0.925866C-0.00434177 0.771802 0.0211976 0.614809 0.0929491 0.473495C0.164701 0.332181 0.279656 0.21247 0.424192 0.128549C0.568728 0.0446284 0.736784 1.6263e-05 0.908444 0H12C12.5253 -7.09302e-09 13.0454 0.0937561 13.5307 0.275915C14.016 0.458074 14.457 0.725068 14.8284 1.06165C15.1999 1.39824 15.4945 1.79783 15.6955 2.2376C15.8965 2.67737 16 3.14871 16 3.62471C16 4.10072 15.8965 4.57206 15.6955 5.01183C15.4945 5.4516 15.1999 5.85119 14.8284 6.18777C14.457 6.52436 14.016 6.79135 13.5307 6.97351C13.0454 7.15567 12.5253 7.24943 12 7.24943H0.908444C0.736784 7.24941 0.568728 7.2048 0.424192 7.12088C0.279656 7.03696 0.164701 6.91725 0.0929491 6.77593C0.0211976 6.63462 -0.00434177 6.47763 0.0193579 6.32356C0.0430576 6.1695 0.115003 6.02482 0.226667 5.90667L0.896889 5.19784C1.31122 4.75986 1.53897 4.202 1.53897 3.62512C1.53897 3.04823 1.31122 2.49038 0.896889 2.05239L0.226667 1.34276ZM0 11.6796C0 10.7183 0.421427 9.79634 1.17157 9.11657C1.92172 8.43681 2.93913 8.05492 4 8.05492H15.0916C15.2632 8.05494 15.4313 8.09955 15.5758 8.18347C15.7203 8.26739 15.8353 8.3871 15.9071 8.52841C15.9788 8.66973 16.0043 8.82672 15.9806 8.98079C15.9569 9.13485 15.885 9.27953 15.7733 9.39767L15.1022 10.1065C14.6879 10.5445 14.4601 11.1023 14.4601 11.6792C14.4601 12.2561 14.6879 12.814 15.1022 13.252L15.7733 13.9608C15.8853 14.0789 15.9575 14.2237 15.9813 14.3779C16.0052 14.5321 15.9797 14.6892 15.9079 14.8307C15.8361 14.9721 15.721 15.092 15.5763 15.1759C15.4316 15.2599 15.2634 15.3045 15.0916 15.3043H4C2.93913 15.3043 1.92172 14.9225 1.17157 14.2427C0.421427 13.5629 0 12.641 0 11.6796Z" fill="#D10000"/>
<path d="M2.08696 10.7826H14.6087" stroke="white" stroke-linecap="round"/>
<path d="M1.3913 3.13043H13.913" stroke="white" stroke-linecap="round"/>
<path d="M1.3913 4.52174L13.913 4.52174" stroke="white" stroke-linecap="round"/>
<path d="M2.08696 12.1739H14.6087" stroke="white" stroke-linecap="round"/>
</svg>
