<svg width="16" height="19" viewBox="0 0 16 19" fill="none" xmlns="http://www.w3.org/2000/svg">
<rect width="16" height="18.2857" fill="white"/>
<path fill-rule="evenodd" clip-rule="evenodd" d="M0.226667 2.34276C0.115003 2.22461 0.0430576 2.07993 0.0193579 1.92587C-0.00434177 1.7718 0.0211976 1.61481 0.0929491 1.4735C0.164701 1.33218 0.279656 1.21247 0.424192 1.12855C0.568728 1.04463 0.736784 1.00002 0.908444 1H12C12.5253 1 13.0454 1.09376 13.5307 1.27591C14.016 1.45807 14.457 1.72507 14.8284 2.06165C15.1999 2.39824 15.4945 2.79783 15.6955 3.2376C15.8965 3.67737 16 4.14871 16 4.62471C16 5.10072 15.8965 5.57206 15.6955 6.01183C15.4945 6.4516 15.1999 6.85119 14.8284 7.18777C14.457 7.52436 14.016 7.79135 13.5307 7.97351C13.0454 8.15567 12.5253 8.24943 12 8.24943H0.908444C0.736784 8.24941 0.568728 8.2048 0.424192 8.12088C0.279656 8.03696 0.164701 7.91725 0.0929491 7.77593C0.0211976 7.63462 -0.00434177 7.47763 0.0193579 7.32356C0.0430576 7.1695 0.115003 7.02482 0.226667 6.90667L0.896889 6.19784C1.31122 5.75986 1.53897 5.202 1.53897 4.62512C1.53897 4.04823 1.31122 3.49038 0.896889 3.05239L0.226667 2.34276ZM0 12.6796C0 11.7183 0.421427 10.7963 1.17157 10.1166C1.92172 9.43681 2.93913 9.05492 4 9.05492H15.0916C15.2632 9.05494 15.4313 9.09955 15.5758 9.18347C15.7203 9.26739 15.8353 9.3871 15.9071 9.52841C15.9788 9.66973 16.0043 9.82672 15.9806 9.98079C15.9569 10.1349 15.885 10.2795 15.7733 10.3977L15.1022 11.1065C14.6879 11.5445 14.4601 12.1023 14.4601 12.6792C14.4601 13.2561 14.6879 13.814 15.1022 14.252L15.7733 14.9608C15.8853 15.0789 15.9575 15.2237 15.9813 15.3779C16.0052 15.5321 15.9797 15.6892 15.9079 15.8307C15.8361 15.9721 15.721 16.092 15.5763 16.1759C15.4316 16.2599 15.2634 16.3045 15.0916 16.3043H4C2.93913 16.3043 1.92172 15.9225 1.17157 15.2427C0.421427 14.5629 0 13.641 0 12.6796Z" fill="#D10000"/>
<path d="M2.08696 11.7826H14.6087" stroke="white" stroke-linecap="round"/>
<path d="M1.3913 4.13043H13.913" stroke="white" stroke-linecap="round"/>
<path d="M1.3913 5.52174L13.913 5.52174" stroke="white" stroke-linecap="round"/>
<path d="M2.08696 13.1739H14.6087" stroke="white" stroke-linecap="round"/>
</svg>
