<svg width="190" height="39" viewBox="0 0 190 39" fill="none" xmlns="http://www.w3.org/2000/svg">
<path fill-rule="evenodd" clip-rule="evenodd" d="M90.3258 9.93021C90.1653 9.76038 90.0619 9.5524 90.0278 9.33093C89.9938 9.10946 90.0305 8.88379 90.1336 8.68065C90.2368 8.47751 90.402 8.30543 90.6098 8.18479C90.8175 8.06415 91.0591 8.00002 91.3059 8H107.25C108.005 8 108.753 8.13477 109.45 8.39663C110.148 8.65848 110.782 9.04229 111.316 9.52613C111.85 10.01 112.273 10.5844 112.562 11.2165C112.851 11.8487 113 12.5263 113 13.2105C113 13.8948 112.851 14.5723 112.562 15.2045C112.273 15.8367 111.85 16.4111 111.316 16.8949C110.782 17.3788 110.148 17.7626 109.45 18.0244C108.753 18.2863 108.005 18.4211 107.25 18.4211H91.3059C91.0591 18.421 90.8175 18.3569 90.6098 18.2363C90.402 18.1156 90.2368 17.9435 90.1336 17.7404C90.0305 17.5373 89.9938 17.3116 90.0278 17.0901C90.0619 16.8687 90.1653 16.6607 90.3258 16.4908L91.2893 15.4719C91.8849 14.8423 92.2123 14.0404 92.2123 13.2111C92.2123 12.3818 91.8849 11.5799 91.2893 10.9503L90.3258 9.93021ZM90 24.7895C90 23.4076 90.6058 22.0822 91.6841 21.1051C92.7625 20.1279 94.225 19.5789 95.75 19.5789H111.694C111.941 19.579 112.182 19.6431 112.39 19.7637C112.598 19.8844 112.763 20.0565 112.866 20.2596C112.97 20.4627 113.006 20.6884 112.972 20.9099C112.938 21.1313 112.835 21.3393 112.674 21.5092L111.709 22.5281C111.114 23.1577 110.786 23.9596 110.786 24.7889C110.786 25.6182 111.114 26.4201 111.709 27.0497L112.674 28.0686C112.835 28.2384 112.939 28.4465 112.973 28.6682C113.007 28.8898 112.971 29.1158 112.868 29.3191C112.764 29.5225 112.599 29.6947 112.391 29.8154C112.183 29.9361 111.941 30.0002 111.694 30H95.75C94.225 30 92.7625 29.451 91.6841 28.4739C90.6058 27.4967 90 26.1714 90 24.7895Z" fill="#D10000"/>
<path d="M93 23.5H111" stroke="white" stroke-linecap="round"/>
<path d="M92 12.5H110" stroke="white" stroke-linecap="round"/>
<path d="M92 14.5L110 14.5" stroke="white" stroke-linecap="round"/>
<path d="M93 25.5H111" stroke="white" stroke-linecap="round"/>
<path d="M2.368 30V7.28H12.416C13.4613 7.28 14.4213 7.49333 15.296 7.92C16.192 8.34667 16.96 8.92267 17.6 9.648C18.2613 10.3733 18.7627 11.184 19.104 12.08C19.4667 12.976 19.648 13.8933 19.648 14.832C19.648 15.792 19.4773 16.72 19.136 17.616C18.816 18.4907 18.3467 19.2587 17.728 19.92C17.1093 20.5813 16.384 21.0933 15.552 21.456L20.736 30H15.872L11.2 22.384H6.784V30H2.368ZM6.784 18.512H12.32C12.8747 18.512 13.3653 18.352 13.792 18.032C14.2187 17.6907 14.56 17.2427 14.816 16.688C15.072 16.1333 15.2 15.5147 15.2 14.832C15.2 14.1067 15.0507 13.4773 14.752 12.944C14.4533 12.3893 14.0693 11.952 13.6 11.632C13.152 11.312 12.6613 11.152 12.128 11.152H6.784V18.512ZM40.3853 26.128V30H24.6092V7.28H40.0972V11.152H29.0252V16.624H38.5933V20.208H29.0252V26.128H40.3853ZM50.964 7.28H55.444L63.796 30H59.252L57.14 24.336H49.204L47.124 30H42.58L50.964 7.28ZM56.34 21.232L53.204 11.856L49.94 21.232H56.34ZM67.248 30V7.28H75.504C77.9787 7.28 80.048 7.792 81.712 8.816C83.376 9.81867 84.624 11.184 85.456 12.912C86.288 14.6187 86.704 16.5173 86.704 18.608C86.704 20.912 86.2453 22.9173 85.328 24.624C84.4107 26.3307 83.1093 27.6533 81.424 28.592C79.76 29.5307 77.7867 30 75.504 30H67.248ZM82.256 18.608C82.256 17.136 81.9893 15.8453 81.456 14.736C80.9227 13.6053 80.1547 12.7307 79.152 12.112C78.1493 11.472 76.9333 11.152 75.504 11.152H71.664V26.128H75.504C76.9547 26.128 78.1813 25.808 79.184 25.168C80.1867 24.5067 80.944 23.6107 81.456 22.48C81.9893 21.328 82.256 20.0373 82.256 18.608Z" fill="#2B2B2B"/>
<path d="M129.064 31.16C127.4 31.16 125.885 30.84 124.52 30.2C123.176 29.56 122.013 28.696 121.032 27.608C120.072 26.4987 119.325 25.2613 118.792 23.896C118.259 22.5093 117.992 21.0907 117.992 19.64C117.992 18.1253 118.269 16.6853 118.824 15.32C119.4 13.9333 120.179 12.7067 121.16 11.64C122.163 10.552 123.336 9.69867 124.68 9.08C126.045 8.44 127.539 8.12 129.16 8.12C130.803 8.12 132.296 8.45067 133.64 9.112C135.005 9.77333 136.168 10.6587 137.128 11.768C138.088 12.8773 138.835 14.1147 139.368 15.48C139.901 16.8453 140.168 18.2533 140.168 19.704C140.168 21.1973 139.891 22.6373 139.336 24.024C138.781 25.3893 138.003 26.616 137 27.704C136.019 28.7707 134.845 29.6133 133.48 30.232C132.136 30.8507 130.664 31.16 129.064 31.16ZM122.472 19.64C122.472 20.6213 122.621 21.5707 122.92 22.488C123.219 23.4053 123.645 24.2267 124.2 24.952C124.776 25.656 125.469 26.2213 126.28 26.648C127.112 27.0533 128.051 27.256 129.096 27.256C130.163 27.256 131.112 27.0427 131.944 26.616C132.776 26.168 133.469 25.5813 134.024 24.856C134.579 24.1093 134.995 23.288 135.272 22.392C135.571 21.4747 135.72 20.5573 135.72 19.64C135.72 18.6587 135.56 17.72 135.24 16.824C134.941 15.9067 134.504 15.096 133.928 14.392C133.373 13.6667 132.68 13.1013 131.848 12.696C131.037 12.2693 130.12 12.056 129.096 12.056C128.008 12.056 127.048 12.28 126.216 12.728C125.405 13.1547 124.723 13.7307 124.168 14.456C123.613 15.1813 123.187 15.992 122.888 16.888C122.611 17.784 122.472 18.7013 122.472 19.64ZM154.211 31.16C152.547 31.16 151.033 30.84 149.667 30.2C148.323 29.56 147.161 28.696 146.179 27.608C145.219 26.4987 144.473 25.2613 143.939 23.896C143.406 22.5093 143.139 21.0907 143.139 19.64C143.139 18.1253 143.417 16.6853 143.971 15.32C144.547 13.9333 145.326 12.7067 146.307 11.64C147.31 10.552 148.483 9.69867 149.827 9.08C151.193 8.44 152.686 8.12 154.307 8.12C155.95 8.12 157.443 8.45067 158.788 9.112C160.153 9.77333 161.316 10.6587 162.275 11.768C163.235 12.8773 163.982 14.1147 164.516 15.48C165.049 16.8453 165.316 18.2533 165.316 19.704C165.316 21.1973 165.038 22.6373 164.483 24.024C163.929 25.3893 163.15 26.616 162.147 27.704C161.166 28.7707 159.993 29.6133 158.628 30.232C157.284 30.8507 155.811 31.16 154.211 31.16ZM147.619 19.64C147.619 20.6213 147.769 21.5707 148.067 22.488C148.366 23.4053 148.793 24.2267 149.347 24.952C149.923 25.656 150.617 26.2213 151.427 26.648C152.259 27.0533 153.198 27.256 154.243 27.256C155.31 27.256 156.259 27.0427 157.091 26.616C157.924 26.168 158.617 25.5813 159.171 24.856C159.726 24.1093 160.142 23.288 160.42 22.392C160.718 21.4747 160.868 20.5573 160.868 19.64C160.868 18.6587 160.708 17.72 160.388 16.824C160.089 15.9067 159.652 15.096 159.076 14.392C158.521 13.6667 157.827 13.1013 156.995 12.696C156.185 12.2693 155.267 12.056 154.243 12.056C153.155 12.056 152.195 12.28 151.363 12.728C150.553 13.1547 149.87 13.7307 149.315 14.456C148.761 15.1813 148.334 15.992 148.035 16.888C147.758 17.784 147.619 18.7013 147.619 19.64ZM169.663 31V8.312H174.079V19.096L183.615 8.28H188.479L179.775 18.36L189.023 31H184.031L176.959 21.208L174.079 24.216V31H169.663Z" fill="#2B2B2B"/>
</svg>
