<svg width="323" height="111" viewBox="0 0 323 111" fill="none" xmlns="http://www.w3.org/2000/svg">
<rect width="323" height="111" fill="#E5E5E5"/>
<rect width="323" height="111" fill="white"/>
<path fill-rule="evenodd" clip-rule="evenodd" d="M157.326 45.9302C157.165 45.7604 157.062 45.5524 157.028 45.3309C156.994 45.1095 157.03 44.8838 157.134 44.6806C157.237 44.4775 157.402 44.3054 157.61 44.1848C157.818 44.0642 158.059 44 158.306 44H174.25C175.005 44 175.753 44.1348 176.45 44.3966C177.148 44.6585 177.782 45.0423 178.316 45.5261C178.85 46.01 179.273 46.5844 179.562 47.2165C179.851 47.8487 180 48.5263 180 49.2105C180 49.8948 179.851 50.5723 179.562 51.2045C179.273 51.8367 178.85 52.4111 178.316 52.8949C177.782 53.3788 177.148 53.7626 176.45 54.0244C175.753 54.2863 175.005 54.4211 174.25 54.4211H158.306C158.059 54.421 157.818 54.3569 157.61 54.2363C157.402 54.1156 157.237 53.9435 157.134 53.7404C157.03 53.5373 156.994 53.3116 157.028 53.0901C157.062 52.8687 157.165 52.6607 157.326 52.4908L158.289 51.4719C158.885 50.8423 159.212 50.0404 159.212 49.2111C159.212 48.3818 158.885 47.5799 158.289 46.9503L157.326 45.9302ZM157 60.7895C157 59.4076 157.606 58.0822 158.684 57.1051C159.762 56.1279 161.225 55.5789 162.75 55.5789H178.694C178.941 55.579 179.182 55.6431 179.39 55.7637C179.598 55.8844 179.763 56.0565 179.866 56.2596C179.97 56.4627 180.006 56.6884 179.972 56.9099C179.938 57.1313 179.835 57.3393 179.674 57.5092L178.709 58.5281C178.114 59.1577 177.786 59.9596 177.786 60.7889C177.786 61.6182 178.114 62.4201 178.709 63.0497L179.674 64.0686C179.835 64.2384 179.939 64.4465 179.973 64.6682C180.007 64.8898 179.971 65.1158 179.868 65.3191C179.764 65.5225 179.599 65.6947 179.391 65.8154C179.183 65.9361 178.941 66.0002 178.694 66H162.75C161.225 66 159.762 65.451 158.684 64.4739C157.606 63.4967 157 62.1714 157 60.7895Z" fill="#D10000"/>
<path d="M160 59.5H178" stroke="white" stroke-linecap="round"/>
<path d="M159 48.5H177" stroke="white" stroke-linecap="round"/>
<path d="M159 50.5L177 50.5" stroke="white" stroke-linecap="round"/>
<path d="M160 61.5H178" stroke="white" stroke-linecap="round"/>
<path d="M69.368 66V43.28H79.416C80.4613 43.28 81.4213 43.4933 82.296 43.92C83.192 44.3467 83.96 44.9227 84.6 45.648C85.2613 46.3733 85.7627 47.184 86.104 48.08C86.4667 48.976 86.648 49.8933 86.648 50.832C86.648 51.792 86.4773 52.72 86.136 53.616C85.816 54.4907 85.3467 55.2587 84.728 55.92C84.1093 56.5813 83.384 57.0933 82.552 57.456L87.736 66H82.872L78.2 58.384H73.784V66H69.368ZM73.784 54.512H79.32C79.8747 54.512 80.3653 54.352 80.792 54.032C81.2187 53.6907 81.56 53.2427 81.816 52.688C82.072 52.1333 82.2 51.5147 82.2 50.832C82.2 50.1067 82.0507 49.4773 81.752 48.944C81.4533 48.3893 81.0693 47.952 80.6 47.632C80.152 47.312 79.6613 47.152 79.128 47.152H73.784V54.512ZM107.385 62.128V66H91.6092V43.28H107.097V47.152H96.0252V52.624H105.593V56.208H96.0252V62.128H107.385ZM117.964 43.28H122.444L130.796 66H126.252L124.14 60.336H116.204L114.124 66H109.58L117.964 43.28ZM123.34 57.232L120.204 47.856L116.94 57.232H123.34ZM134.248 66V43.28H142.504C144.979 43.28 147.048 43.792 148.712 44.816C150.376 45.8187 151.624 47.184 152.456 48.912C153.288 50.6187 153.704 52.5173 153.704 54.608C153.704 56.912 153.245 58.9173 152.328 60.624C151.411 62.3307 150.109 63.6533 148.424 64.592C146.76 65.5307 144.787 66 142.504 66H134.248ZM149.256 54.608C149.256 53.136 148.989 51.8453 148.456 50.736C147.923 49.6053 147.155 48.7307 146.152 48.112C145.149 47.472 143.933 47.152 142.504 47.152H138.664V62.128H142.504C143.955 62.128 145.181 61.808 146.184 61.168C147.187 60.5067 147.944 59.6107 148.456 58.48C148.989 57.328 149.256 56.0373 149.256 54.608Z" fill="#2B2B2B"/>
<path d="M196.064 67.16C194.4 67.16 192.885 66.84 191.52 66.2C190.176 65.56 189.013 64.696 188.032 63.608C187.072 62.4987 186.325 61.2613 185.792 59.896C185.259 58.5093 184.992 57.0907 184.992 55.64C184.992 54.1253 185.269 52.6853 185.824 51.32C186.4 49.9333 187.179 48.7067 188.16 47.64C189.163 46.552 190.336 45.6987 191.68 45.08C193.045 44.44 194.539 44.12 196.16 44.12C197.803 44.12 199.296 44.4507 200.64 45.112C202.005 45.7733 203.168 46.6587 204.128 47.768C205.088 48.8773 205.835 50.1147 206.368 51.48C206.901 52.8453 207.168 54.2533 207.168 55.704C207.168 57.1973 206.891 58.6373 206.336 60.024C205.781 61.3893 205.003 62.616 204 63.704C203.019 64.7707 201.845 65.6133 200.48 66.232C199.136 66.8507 197.664 67.16 196.064 67.16ZM189.472 55.64C189.472 56.6213 189.621 57.5707 189.92 58.488C190.219 59.4053 190.645 60.2267 191.2 60.952C191.776 61.656 192.469 62.2213 193.28 62.648C194.112 63.0533 195.051 63.256 196.096 63.256C197.163 63.256 198.112 63.0427 198.944 62.616C199.776 62.168 200.469 61.5813 201.024 60.856C201.579 60.1093 201.995 59.288 202.272 58.392C202.571 57.4747 202.72 56.5573 202.72 55.64C202.72 54.6587 202.56 53.72 202.24 52.824C201.941 51.9067 201.504 51.096 200.928 50.392C200.373 49.6667 199.68 49.1013 198.848 48.696C198.037 48.2693 197.12 48.056 196.096 48.056C195.008 48.056 194.048 48.28 193.216 48.728C192.405 49.1547 191.723 49.7307 191.168 50.456C190.613 51.1813 190.187 51.992 189.888 52.888C189.611 53.784 189.472 54.7013 189.472 55.64ZM221.211 67.16C219.547 67.16 218.033 66.84 216.667 66.2C215.323 65.56 214.161 64.696 213.179 63.608C212.219 62.4987 211.473 61.2613 210.939 59.896C210.406 58.5093 210.139 57.0907 210.139 55.64C210.139 54.1253 210.417 52.6853 210.971 51.32C211.547 49.9333 212.326 48.7067 213.307 47.64C214.31 46.552 215.483 45.6987 216.827 45.08C218.193 44.44 219.686 44.12 221.307 44.12C222.95 44.12 224.443 44.4507 225.788 45.112C227.153 45.7733 228.316 46.6587 229.275 47.768C230.235 48.8773 230.982 50.1147 231.516 51.48C232.049 52.8453 232.316 54.2533 232.316 55.704C232.316 57.1973 232.038 58.6373 231.483 60.024C230.929 61.3893 230.15 62.616 229.147 63.704C228.166 64.7707 226.993 65.6133 225.628 66.232C224.284 66.8507 222.811 67.16 221.211 67.16ZM214.619 55.64C214.619 56.6213 214.769 57.5707 215.067 58.488C215.366 59.4053 215.793 60.2267 216.347 60.952C216.923 61.656 217.617 62.2213 218.427 62.648C219.259 63.0533 220.198 63.256 221.243 63.256C222.31 63.256 223.259 63.0427 224.091 62.616C224.924 62.168 225.617 61.5813 226.171 60.856C226.726 60.1093 227.142 59.288 227.42 58.392C227.718 57.4747 227.868 56.5573 227.868 55.64C227.868 54.6587 227.708 53.72 227.388 52.824C227.089 51.9067 226.652 51.096 226.076 50.392C225.521 49.6667 224.827 49.1013 223.995 48.696C223.185 48.2693 222.267 48.056 221.243 48.056C220.155 48.056 219.195 48.28 218.363 48.728C217.553 49.1547 216.87 49.7307 216.315 50.456C215.761 51.1813 215.334 51.992 215.035 52.888C214.758 53.784 214.619 54.7013 214.619 55.64ZM236.663 67V44.312H241.079V55.096L250.615 44.28H255.479L246.775 54.36L256.023 67H251.031L243.959 57.208L241.079 60.216V67H236.663Z" fill="#2B2B2B"/>
</svg>
